<svg width="58" height="58" viewBox="0 0 58 58" fill="none" xmlns="http://www.w3.org/2000/svg">
<path d="M19 13.625H39.1667L46.3203 24.0744L29.0833 49.25L11.8463 24.0744L19 13.625ZM26.6303 15.5L23.5173 23H34.6493L31.5363 15.5H26.6303ZM23.2662 24.875L29.0833 43.1825L34.8987 24.875H23.268H23.2662ZM14.82 23H21.5263L24.6393 15.5H19.9533L14.82 23ZM14.633 24.875L27.1455 43.1506L21.3393 24.875H14.633ZM43.3467 23L38.2133 15.5H33.5273L36.6403 23H43.3467ZM43.5337 24.875H36.8273L31.0212 43.1506L43.5337 24.875Z" fill="white"/>
<circle cx="29" cy="29" r="28" stroke="white" stroke-width="2"/>
</svg>
